<?xml version="1.0" encoding="utf-8"?>
<!-- Generator: Adobe Illustrator 27.0.0, SVG Export Plug-In . SVG Version: 6.00 Build 0)  -->
<svg version="1.1" id="Слой_1" xmlns="http://www.w3.org/2000/svg" xmlns:xlink="http://www.w3.org/1999/xlink" x="0px" y="0px"
	 viewBox="0 0 63 63" style="enable-background:new 0 0 63 63;" xml:space="preserve">
<style type="text/css">
	.st0{fill:#111C55;stroke:#273270;}
	.st1{fill:#F6B426;stroke:#F6B426;}
</style>
<g id="Icon">
	<circle id="Background" class="st0" cx="31.5" cy="31.5" r="31"/>
	<g>
		<path class="st1" d="M36.2,32.6C35.6,33.8,34.8,35,34,36c-0.8,1-1.6,2-2.5,2.9C30.6,38,29.8,37,29,36c-0.8-1.1-1.6-2.3-2.2-3.5
			c-0.6-1.2-0.9-2.3-0.9-3.3c0-3.1,2.5-5.6,5.6-5.6s5.6,2.5,5.6,5.6C37.1,30.2,36.8,31.3,36.2,32.6z M31.5,40.5
			c0,0,6.8-6.4,6.8-11.3c0-3.7-3-6.8-6.8-6.8s-6.8,3-6.8,6.8C24.7,34.1,31.5,40.5,31.5,40.5z"/>
		<path class="st1" d="M31.5,31.5c-1.2,0-2.3-1-2.3-2.3c0-1.2,1-2.3,2.3-2.3c1.2,0,2.3,1,2.3,2.3C33.8,30.5,32.7,31.5,31.5,31.5z
			 M31.5,32.6c1.9,0,3.4-1.5,3.4-3.4c0-1.9-1.5-3.4-3.4-3.4c-1.9,0-3.4,1.5-3.4,3.4C28.1,31.1,29.6,32.6,31.5,32.6z"/>
	</g>
</g>
</svg>
