<svg width="56" height="58" viewBox="0 0 56 58" fill="none" xmlns="http://www.w3.org/2000/svg">
<g id="Icon">
<g id="Icon_2">
<g id="Icon_3">
<path id="Vector" d="M24.8276 28.8953C32.3513 28.8953 38.4505 22.7961 38.4505 15.2724C38.4505 7.74862 32.3513 1.64941 24.8276 1.64941C17.3038 1.64941 11.2046 7.74862 11.2046 15.2724C11.2046 22.7961 17.3038 28.8953 24.8276 28.8953Z" fill="#FFD550" stroke="#1C1F35" stroke-width="2" stroke-linecap="round" stroke-linejoin="round"/>
<path id="Vector_2" d="M5.34668 37.9774C7.73355 35.1326 10.7145 32.8451 14.08 31.2756C17.4456 29.7061 21.114 28.8928 24.8275 28.8928C28.541 28.8928 32.2094 29.7061 35.575 31.2756C38.9405 32.8451 41.9215 35.1326 44.3084 37.9774" stroke="#1C1F35" stroke-width="2" stroke-linecap="round" stroke-linejoin="round"/>
<g id="Group 2473">
<path id="Rectangle 19" d="M51.8918 39.1123L41.6746 39.1123L41.6746 20.9484L51.8918 20.9484L51.8918 39.1123Z" fill="white" stroke="#141414" stroke-linecap="round" stroke-linejoin="round"/>
<path id="Rectangle 20" d="M51.8918 27.76L41.6746 27.76L41.6746 20.9485L51.8918 20.9485L51.8918 27.76Z" fill="#FFD550" stroke="black" stroke-linecap="round" stroke-linejoin="round"/>
<path id="Vector_3" d="M48.4861 25.4895L45.0803 25.4895" stroke="#141414" stroke-linecap="round" stroke-linejoin="round"/>
<path id="Vector_4" d="M48.4861 31.1653L45.0803 31.1653" stroke="#141414" stroke-linecap="round" stroke-linejoin="round"/>
</g>
</g>
<path id="Vector_5" d="M55.2976 28.8953L55.2976 38.5526" stroke="#1C1F35" stroke-linecap="round" stroke-linejoin="round"/>
<path id="Vector_6" d="M6.71961 22.6294C5.84388 21.4753 3.68521 17.6349 5.35522 10.4199" stroke="#1C1F35" stroke-width="1.5" stroke-linecap="round" stroke-linejoin="round"/>
<path id="Vector_7" d="M35.2446 16.685C35.1963 17.8454 34.555 21.3291 29.708 25.0125" stroke="#1C1F35" stroke-linecap="round" stroke-linejoin="round"/>
</g>
</g>
</svg>
